          <svg
            width="96"
            height="25"
            viewBox="0 0 96 25"
            fill="none"
            xmlns="http://www.w3.org/2000/svg"
          >
            <path
              d="M14.7898 11.344C14.685 9.82285 13.9631 8.70958 12.5852 8.07854C12.2959 7.95453 11.9955 7.84706 11.6152 7.70102C11.9156 7.5467 12.1388 7.42544 12.3427 7.31522C12.7384 7.09429 13.0845 6.79439 13.3594 6.43412C13.6344 6.07385 13.8323 5.66091 13.941 5.22094C14.1999 4.29343 14.0994 3.3024 13.6596 2.44575C13.2197 1.58911 12.473 0.929891 11.5684 0.599723C10.8798 0.346605 10.1497 0.225091 9.41625 0.241493H0.628509C-0.0300888 0.241493 0.000215205 0.260786 0.000215205 0.900095V15.618C0.000215205 15.764 0.000234043 15.8935 0.0195235 16.0644C0.0209387 16.1126 0.040932 16.1585 0.0753293 16.1924C0.109727 16.2263 0.155851 16.2456 0.20413 16.2462C0.405292 16.2462 0.600946 16.2462 0.793841 16.2462C3.01213 16.2462 5.23044 16.227 7.45975 16.2462C8.70237 16.2525 9.94352 16.1603 11.1716 15.9707C12.8773 15.7199 13.9989 14.7389 14.5913 13.1406C14.7813 12.562 14.8489 11.9501 14.7898 11.344ZM4.99621 3.73013C4.99621 3.5455 5.12021 3.46834 5.27177 3.46834C6.09847 3.46834 6.92516 3.4959 7.75185 3.50692H7.89513C8.14393 3.53699 8.38107 3.62953 8.58448 3.77591C8.78789 3.92229 8.95097 4.11775 9.05851 4.34411C9.16605 4.57047 9.21456 4.82035 9.19954 5.07051C9.18452 5.32066 9.10645 5.56294 8.9726 5.77481C8.83563 6.00894 8.62412 6.19039 8.37187 6.29013C8.12338 6.39564 7.85645 6.45088 7.5865 6.4527C7.19796 6.4527 6.80114 6.4527 6.4126 6.4527V6.47199H5.24145C5.20397 6.47757 5.16572 6.4743 5.12974 6.46242C5.09376 6.45055 5.06106 6.4304 5.03427 6.40361C5.00748 6.37682 4.98735 6.34412 4.97547 6.30814C4.9636 6.27216 4.96031 6.2339 4.96589 6.19643L4.99621 3.73013ZM8.90921 12.5757C8.64159 12.6977 8.35177 12.7633 8.05772 12.7686H6.6799V12.7879H5.30208C5.07888 12.7879 5.02652 12.7108 5.02652 12.4683C5.02652 11.5975 5.02652 10.7157 5.02652 9.84214C5.02652 9.59964 5.09265 9.54178 5.33515 9.54178C6.21695 9.54178 7.08773 9.54178 7.96127 9.56107C8.25397 9.57134 8.54401 9.62045 8.82378 9.70711C9.12095 9.78757 9.38305 9.9643 9.56904 10.2096C9.75503 10.455 9.85442 10.755 9.85165 11.0629C9.88187 11.3849 9.80475 11.7079 9.63229 11.9815C9.45984 12.2552 9.20174 12.4641 8.89819 12.5757H8.90921Z"
              fill="#DEE6F6"
            />
            <path
              d="M64.62 8.22458V0.97173C64.62 0.191883 64.5704 0.238736 65.3145 0.238736H76.1552C76.2792 0.238736 76.4004 0.238736 76.5217 0.238736C76.7697 0.252515 76.833 0.302107 76.833 0.539092C76.833 1.49254 76.833 2.44326 76.833 3.39671C76.8392 3.43429 76.8364 3.47281 76.8247 3.50908C76.8131 3.54534 76.793 3.57831 76.766 3.60525C76.7391 3.63218 76.7061 3.65231 76.6699 3.66396C76.6336 3.67562 76.5951 3.67847 76.5575 3.67227H70.4785C70.2829 3.67227 70.0872 3.67227 69.8916 3.67227C69.6959 3.67227 69.5995 3.74391 69.5967 3.98916C69.5967 4.69828 69.5967 5.40648 69.5967 6.11377C69.5967 6.38933 69.6491 6.43892 69.9467 6.44995C70.1175 6.44995 70.2884 6.44995 70.4592 6.44995H75.0005C75.1962 6.44995 75.3918 6.44995 75.5875 6.46924C75.6977 6.46924 75.7528 6.55191 75.7694 6.65938C75.7707 6.68324 75.7707 6.70716 75.7694 6.73103C75.7694 7.61008 75.7694 8.48913 75.7694 9.36818C75.7694 9.61067 75.7087 9.66027 75.4607 9.67405C75.2899 9.67405 75.119 9.67405 74.9482 9.67405H70.4069C70.2103 9.67405 70.0147 9.67405 69.8199 9.67405C69.7895 9.67283 69.7591 9.67803 69.7307 9.6893C69.7024 9.70058 69.6767 9.71769 69.6554 9.73951C69.6341 9.76133 69.6177 9.78739 69.6071 9.81599C69.5965 9.84459 69.592 9.8751 69.594 9.90553C69.594 10.1012 69.594 10.2968 69.594 10.4925V15.2542C69.594 15.4003 69.594 15.5463 69.594 15.6924C69.594 16.227 69.594 16.2435 69.0732 16.2435C68.1445 16.2435 67.2159 16.2435 66.29 16.2435C65.8491 16.2435 65.4109 16.2435 64.97 16.2435C64.6779 16.2435 64.6338 16.1911 64.6228 15.9018C64.6228 15.7061 64.6228 15.5105 64.6228 15.3149L64.62 8.22458Z"
              fill="#DEE6F6"
            />
            <path
              d="M77.9435 0.269058C78.2577 0.269058 78.4506 0.241508 78.6407 0.241508C80.0185 0.241508 81.3771 0.258042 82.7439 0.241508C82.9462 0.216718 83.1513 0.256706 83.3295 0.355727C83.5078 0.454747 83.65 0.607705 83.7359 0.792636C84.5185 2.17046 85.3507 3.52347 86.1636 4.88476C86.2876 5.09419 86.4171 5.30086 86.5411 5.50202C86.7754 5.50202 86.8167 5.30363 86.8884 5.17135C87.7454 3.74944 88.5941 2.32478 89.4483 0.90011C89.5338 0.754061 89.6302 0.624539 89.7239 0.461956C89.7592 0.397779 89.8117 0.344703 89.8754 0.308684C89.9392 0.272664 90.0117 0.255129 90.0849 0.258041H94.8467H94.9927C95.1332 0.271819 95.2104 0.393058 95.1415 0.506039C95.0395 0.674133 94.9321 0.836727 94.8246 0.999309C93.0481 3.65575 91.2689 6.31218 89.4869 8.96862C89.2257 9.31764 89.0854 9.74237 89.0874 10.1783C89.1094 11.9116 89.0874 13.6449 89.0874 15.3782C89.0874 15.5739 89.0874 15.7695 89.0874 15.9624C89.0874 16.1553 89.0074 16.238 88.7594 16.2573H88.685C87.2934 16.2573 85.9018 16.2573 84.5102 16.2573C84.1741 16.2573 84.1272 16.2104 84.1272 15.877C84.1272 14.3614 84.1272 12.8458 84.1272 11.3357C84.1272 10.9444 84.1107 10.5531 84.1272 10.1618C84.149 9.77261 84.035 9.3879 83.8048 9.07333C82.6364 7.35657 81.4901 5.62878 80.3354 3.90375L78.2163 0.740278C78.1502 0.616275 78.0813 0.497776 77.9435 0.269058Z"
              fill="#DEE6F6"
            />
            <path
              d="M40.9656 8.20529V1.16738C40.9656 0.971734 40.9656 0.776082 40.9656 0.580432C40.9656 0.304868 41.0428 0.244249 41.3266 0.241493C42.743 0.241493 44.1603 0.241493 45.5786 0.241493C45.8541 0.241493 45.901 0.28833 45.912 0.594207C45.912 0.789857 45.912 0.985509 45.912 1.18116V11.377C45.912 11.5727 45.912 11.7683 45.912 11.964C45.912 12.2395 45.9726 12.2974 46.2702 12.3029C46.7828 12.3029 47.2953 12.3029 47.8079 12.3029H52.8672C53.0601 12.3029 53.2558 12.3029 53.4514 12.3222C53.4757 12.3229 53.4996 12.3284 53.5217 12.3384C53.5438 12.3483 53.5638 12.3625 53.5804 12.3802C53.597 12.3978 53.61 12.4186 53.6186 12.4413C53.6272 12.464 53.6313 12.4881 53.6306 12.5124C53.6306 12.562 53.6306 12.6116 53.6306 12.6584C53.6306 13.7359 53.6306 14.8106 53.6306 15.8853C53.6306 16.2132 53.5809 16.249 53.242 16.26C53.0959 16.26 52.9471 16.26 52.8011 16.26H41.8061C41.6352 16.26 41.4644 16.26 41.2935 16.26C41.018 16.26 40.9656 16.1966 40.9518 15.9045C40.9518 15.7089 40.9518 15.5132 40.9518 15.3176L40.9656 8.20529Z"
              fill="#DEE6F6"
            />
            <path
              d="M26.0603 8.20805V0.891831C26.0603 0.230477 26.0355 0.244262 26.6941 0.244262H30.3564C30.4556 0.244262 30.552 0.244262 30.6512 0.244262C30.9268 0.25804 31.0039 0.3159 31.015 0.580442C31.015 0.776093 31.015 0.971744 31.015 1.16739C31.015 4.58439 31.015 8.00231 31.015 11.4211C31.015 12.4242 30.924 12.2974 31.9298 12.3002C33.9332 12.3002 35.9338 12.3002 37.9371 12.3002C38.13 12.3002 38.3257 12.3002 38.5213 12.3167C38.5454 12.3174 38.5692 12.3229 38.5912 12.3329C38.6131 12.3429 38.6329 12.3571 38.6493 12.3748C38.6658 12.3925 38.6785 12.4133 38.6868 12.436C38.6951 12.4587 38.6988 12.4828 38.6977 12.5069C38.7004 12.5555 38.7004 12.6043 38.6977 12.6529C38.6977 13.7276 38.6977 14.8023 38.6977 15.8742C38.6977 16.2132 38.6508 16.2463 38.3174 16.2573C38.1686 16.2573 38.0225 16.2573 37.8765 16.2573H26.8925C26.7189 16.2573 26.5481 16.2573 26.3772 16.2573C26.1016 16.2573 26.0575 16.1967 26.0465 15.8991C26.0355 15.6014 26.0465 15.3479 26.0465 15.0917L26.0603 8.20805Z"
              fill="#DEE6F6"
            />
            <path
              d="M22.5331 8.25765V15.4223C22.5331 15.618 22.5331 15.8136 22.5331 16.0065C22.5338 16.037 22.5285 16.0673 22.5173 16.0957C22.5062 16.1241 22.4894 16.15 22.4681 16.1718C22.4468 16.1936 22.4213 16.211 22.3932 16.2228C22.3651 16.2347 22.3349 16.2408 22.3044 16.2407C22.208 16.2407 22.1088 16.2407 22.0123 16.2407H18.1324H17.8375C17.6529 16.2407 17.5867 16.1223 17.584 15.9652C17.5812 15.8081 17.584 15.6731 17.584 15.527C17.584 10.6679 17.584 5.80972 17.584 0.952441C17.584 0.197395 17.5261 0.233223 18.2894 0.233223H21.8718C22.0177 0.224922 22.164 0.224922 22.3099 0.233223C22.3405 0.234282 22.3707 0.241428 22.3985 0.25423C22.4264 0.267031 22.4515 0.285237 22.4722 0.307798C22.493 0.33036 22.5091 0.356827 22.5195 0.385654C22.53 0.414481 22.5346 0.445092 22.5331 0.47572C22.5331 0.671371 22.5331 0.867023 22.5331 1.06267V8.25765Z"
              fill="#DEE6F6"
            />
            <path
              d="M61.0404 8.28796C61.0404 10.7313 61.0404 13.1737 61.0404 15.6152C61.0404 16.2545 61.0404 16.2573 60.3984 16.26H56.7361H56.3696C56.1878 16.26 56.1189 16.1415 56.1134 15.9845C56.1078 15.8274 56.1134 15.6924 56.1134 15.5463V0.968982C56.1134 0.202914 56.0637 0.252506 56.8243 0.252506H60.3405C60.5113 0.252506 60.6822 0.252508 60.853 0.271797C60.9018 0.274645 60.9475 0.296388 60.9804 0.332413C61.0133 0.368439 61.0309 0.415906 61.0294 0.464695C61.0294 0.685147 61.0459 0.905602 61.0459 1.1233C61.0459 3.50968 61.0441 5.89791 61.0404 8.28796Z"
              fill="#DEE6F6"
            />
            <path
              d="M84.4992 22.1764C84.4717 22.5153 84.4992 22.8708 84.4855 23.2263C84.4717 23.5818 84.4855 24.0061 84.4855 24.3974C84.4855 24.5793 84.3945 24.673 84.2099 24.673C83.893 24.673 83.5761 24.673 83.2592 24.673C83.2229 24.6764 83.1863 24.6714 83.1522 24.6585C83.1181 24.6456 83.0874 24.6251 83.0624 24.5985C83.0374 24.5719 83.0188 24.54 83.008 24.5052C82.9973 24.4703 82.9946 24.4335 83.0002 24.3974C83.0002 24.301 83.0002 24.2018 83.0002 24.1053V20.2089C83.0002 20.0849 83.0002 19.9636 83.0002 19.8424C82.9983 19.818 83.0013 19.7936 83.0091 19.7704C83.0169 19.7473 83.0293 19.726 83.0455 19.7077C83.0617 19.6895 83.0814 19.6747 83.1034 19.6642C83.1255 19.6537 83.1494 19.6478 83.1738 19.6467C83.5651 19.6467 83.9536 19.6467 84.3422 19.6467C84.5158 19.6467 84.5874 19.79 84.6673 19.9223L85.9046 21.7327C86.0121 21.8898 86.1278 22.0386 86.2353 22.1902C86.4227 22.1047 86.362 21.967 86.362 21.8595C86.362 21.2257 86.362 20.5919 86.362 19.9581C86.362 19.7211 86.4254 19.6522 86.6652 19.655C88.0761 19.6798 87.8198 19.4042 87.8363 20.7572C87.8529 21.9532 87.8363 23.1491 87.8363 24.3396C87.8363 24.6482 87.8143 24.6675 87.4919 24.6675C87.1254 24.6675 86.7258 24.7419 86.4034 24.6206C86.081 24.4994 85.9515 24.0695 85.742 23.7719C85.4003 23.2952 85.0779 22.8074 84.7472 22.3252C84.7142 22.237 84.6783 22.1378 84.4992 22.1764Z"
              fill="#DEE6F6"
            />
            <path
              d="M55.0111 22.1103V22.8129C55.0111 23.3255 55.0111 23.838 55.0111 24.3506C55.0111 24.6262 54.9698 24.6675 54.7356 24.6647C53.3081 24.6427 53.5616 24.9072 53.5451 23.5625C53.5313 22.4905 53.5451 21.4186 53.5451 20.3439C53.5451 20.173 53.5451 20.0022 53.5451 19.8313C53.5465 19.7826 53.5669 19.7363 53.6019 19.7024C53.6369 19.6684 53.6837 19.6494 53.7325 19.6495C53.9033 19.6495 54.0742 19.6495 54.245 19.6495C55.0194 19.6495 55.0194 19.6495 55.4658 20.297C55.824 20.8206 56.1795 21.3442 56.5405 21.865C56.6177 21.978 56.6673 22.124 56.8161 22.1654C56.9511 22.0524 56.8905 21.8898 56.8932 21.7658C56.8932 21.1577 56.8932 20.5478 56.8932 19.936C56.8932 19.7624 56.9676 19.6605 57.1467 19.6605C57.2432 19.6605 57.3424 19.6605 57.4388 19.6605C58.5411 19.6798 58.3647 19.5007 58.373 20.5754C58.373 21.7217 58.373 22.868 58.373 24.0144C58.3776 24.1846 58.3712 24.3549 58.3537 24.5242C58.3537 24.5793 58.2765 24.6372 58.2242 24.673C58.179 24.6921 58.1295 24.6987 58.0809 24.6923C57.6923 24.6923 57.2542 24.7612 56.9263 24.6317C56.5984 24.5022 56.4744 24.0805 56.2649 23.7802C55.9012 23.2621 55.5457 22.7385 55.182 22.2177C55.193 22.1681 55.1489 22.1654 55.0111 22.1103Z"
              fill="#DEE6F6"
            />
            <path
              d="M25.873 24.0392C25.5726 23.4881 25.3604 22.8763 24.8093 22.5071C24.8286 22.4685 24.8286 22.4409 24.8479 22.4299C24.925 22.372 25.0132 22.3224 25.0904 22.2756C25.3684 22.1124 25.584 21.8613 25.7033 21.5619C25.8226 21.2624 25.8387 20.9318 25.749 20.6222C25.5947 20.0215 25.1372 19.6936 24.3712 19.6439C24.0019 19.6247 23.6326 19.6439 23.2689 19.6439C22.6792 19.6439 22.0977 19.6439 21.5053 19.6439C21.2628 19.6439 21.2297 19.7018 21.2297 19.9526C21.2297 20.0793 21.2297 20.1951 21.2297 20.3218C21.2297 21.4241 21.2297 22.5264 21.2297 23.6148C21.249 24.8852 21.0148 24.6509 22.3154 24.6702C22.7894 24.6702 22.7977 24.6702 22.8087 24.188V23.8188C22.8087 23.5267 22.8087 23.2373 22.8087 22.9369C22.8046 22.8451 22.8362 22.7552 22.8969 22.6862C23.0043 22.6063 23.1284 22.6862 23.2358 22.733C23.3638 22.8095 23.4678 22.9202 23.5362 23.0527C23.6629 23.2869 23.7787 23.5266 23.9247 23.7609C24.0901 24.0364 24.1672 24.4388 24.4566 24.6124C24.7459 24.786 25.1262 24.662 25.4651 24.6702C26.1733 24.6757 26.2229 24.6868 25.873 24.0392ZM23.8889 21.5784C23.7254 21.6325 23.5562 21.6677 23.3846 21.6831C22.8611 21.7327 22.8032 21.6831 22.8032 21.0824C22.8032 21.0548 22.8032 20.9474 22.8032 20.8509C22.8035 20.8273 22.8086 20.8039 22.8182 20.7823C22.8277 20.7607 22.8415 20.7412 22.8587 20.725C22.8759 20.7088 22.8962 20.6962 22.9184 20.688C22.9406 20.6799 22.9642 20.6762 22.9878 20.6773C23.2562 20.6686 23.5248 20.675 23.7925 20.6966C23.8899 20.7024 23.9823 20.7423 24.0533 20.8093C24.1243 20.8763 24.1695 20.9661 24.181 21.0631C24.2004 21.1671 24.1815 21.2746 24.1278 21.3658C24.0742 21.457 23.9893 21.5256 23.8889 21.5591V21.5784Z"
              fill="#DEE6F6"
            />
            <path
              d="M92.8736 21.7768C93.1932 21.7768 93.5101 21.7768 93.827 21.7768C93.9869 21.7768 94.1026 21.8512 94.1026 22.0524V23.7361C94.1012 23.8093 94.0799 23.8808 94.0411 23.9429C94.0023 24.005 93.9474 24.0554 93.8822 24.0888C93.3895 24.4294 92.8249 24.6519 92.2323 24.7388C91.6396 24.8258 91.0349 24.775 90.4652 24.5903C89.6164 24.3313 89.17 23.67 89.0047 22.8212C88.9248 22.3876 88.9248 21.9431 89.0047 21.5095C89.0728 21.0475 89.2832 20.6182 89.6067 20.2813C89.9302 19.9445 90.3507 19.7169 90.8096 19.6302C91.4561 19.4905 92.1257 19.498 92.7689 19.6522C93.1783 19.7436 93.5355 19.9919 93.7637 20.3439C94.1081 20.8592 94.064 20.9667 93.4605 21.0824C93.3172 21.11 93.1684 21.1127 93.0279 21.1485C92.9058 21.1945 92.7721 21.2001 92.6466 21.1644C92.5211 21.1286 92.4103 21.0535 92.3307 20.9501C92.2101 20.8283 92.0606 20.7391 91.8961 20.6907C91.7317 20.6424 91.5577 20.6365 91.3903 20.6737C91.223 20.7108 91.0678 20.7898 90.9393 20.9032C90.8107 21.0166 90.713 21.1608 90.6553 21.3222C90.4604 21.8561 90.4604 22.4416 90.6553 22.9755C90.6942 23.1055 90.7627 23.2247 90.8555 23.3237C90.9482 23.4226 91.0627 23.4987 91.1899 23.546C91.4185 23.6333 91.6648 23.6643 91.9079 23.6365C92.1511 23.6087 92.384 23.5228 92.587 23.3861C92.6271 23.358 92.6597 23.3204 92.6818 23.2767C92.7039 23.2329 92.7149 23.1844 92.7138 23.1354C92.7138 23.0003 92.6862 22.8874 92.5346 22.8736C92.3169 22.857 92.0965 22.8598 91.8788 22.8488C91.7631 22.8488 91.7107 22.7633 91.6914 22.6614C91.6888 22.6127 91.6888 22.564 91.6914 22.5153C91.6584 21.7906 91.6583 21.7879 92.3886 21.7851H92.9012L92.8736 21.7768Z"
              fill="#DEE6F6"
            />
            <path
              d="M70.0735 21.1596C69.9791 20.8169 69.8002 20.5034 69.5532 20.2477C69.3062 19.9921 68.9991 19.8025 68.6598 19.6963C67.962 19.4593 67.2055 19.4593 66.5077 19.6963C66.1801 19.7964 65.8814 19.9739 65.6368 20.2137C65.3922 20.4535 65.2089 20.7486 65.1023 21.0741C64.9831 21.3964 64.9306 21.7395 64.948 22.0827C64.9179 22.4473 64.9677 22.8141 65.094 23.1574C65.1863 23.4877 65.3592 23.7899 65.5974 24.0366C65.8355 24.2834 66.1313 24.4671 66.4581 24.571C67.1533 24.8137 67.9085 24.8243 68.6102 24.6013C68.9541 24.5066 69.2677 24.3246 69.5207 24.0731C69.7737 23.8216 69.9574 23.509 70.0542 23.1657C70.2572 22.5133 70.2639 21.8157 70.0735 21.1596ZM68.4945 22.9535C68.4327 23.1411 68.3111 23.3033 68.1484 23.4153C67.9856 23.5272 67.7907 23.5828 67.5934 23.5735C67.4095 23.5835 67.2267 23.5402 67.0668 23.4488C66.907 23.3574 66.7769 23.2217 66.6923 23.0582C66.5584 22.7369 66.5017 22.3886 66.527 22.0414C66.5324 21.8559 66.5555 21.6713 66.5959 21.4902C66.6439 21.2741 66.7638 21.0807 66.9359 20.9415C67.1081 20.8024 67.3224 20.7257 67.5438 20.7242C67.7672 20.7132 67.9875 20.7796 68.1677 20.9121C68.3479 21.0446 68.4769 21.2351 68.5331 21.4517C68.6814 21.9428 68.6717 22.4681 68.5055 22.9535H68.4945Z"
              fill="#DEE6F6"
            />
            <path
              d="M15.8341 22.1433C15.8341 21.4131 15.8341 20.6801 15.8341 19.9388C15.8341 19.6825 15.8892 19.6219 16.1097 19.6192H19.7664C19.804 19.613 19.8425 19.6158 19.8788 19.6275C19.9151 19.6391 19.948 19.6592 19.975 19.6862C20.0019 19.7131 20.022 19.7461 20.0337 19.7823C20.0453 19.8186 20.0482 19.8571 20.042 19.8947C20.042 20.7517 20.1494 20.6939 19.2759 20.6939C18.7882 20.6939 18.3004 20.6939 17.8127 20.6939C17.4489 20.6939 17.4103 20.749 17.4186 21.1293C17.4186 21.1541 17.4186 21.1789 17.4186 21.2037C17.4186 21.3855 17.5233 21.4627 17.6942 21.4627H18.8626H19.3035C19.8188 21.4627 19.8298 21.4847 19.827 22.0138C19.827 22.4795 19.805 22.5016 19.331 22.5071C18.7799 22.5071 18.2095 22.5071 17.6473 22.5071C17.617 22.5046 17.5865 22.5087 17.558 22.5192C17.5294 22.5296 17.5035 22.5462 17.482 22.5677C17.4605 22.5892 17.4439 22.6151 17.4335 22.6437C17.423 22.6722 17.4189 22.7027 17.4214 22.733C17.4048 23.5267 17.3442 23.466 18.091 23.4688H19.8463C19.8768 23.4656 19.9076 23.469 19.9367 23.4788C19.9658 23.4885 19.9924 23.5043 20.0149 23.5252C20.0373 23.5461 20.055 23.5715 20.0668 23.5998C20.0787 23.6281 20.0843 23.6586 20.0833 23.6892C20.0833 24.7777 20.2404 24.6289 19.2566 24.6344C18.2729 24.6399 17.3056 24.6344 16.3301 24.6344C15.8258 24.6344 15.8231 24.6344 15.8203 24.0833C15.8203 23.4247 15.8203 22.7661 15.8203 22.1075L15.8341 22.1433Z"
              fill="#DEE6F6"
            />
            <path
              d="M31.9106 22.1103C31.9106 21.3773 31.9106 20.6443 31.9106 19.9058C31.9106 19.7294 31.9905 19.6302 32.1861 19.6302H35.8484C36.0357 19.6302 36.1019 19.7404 36.0964 19.9058V19.9802C36.0964 20.7517 36.179 20.6939 35.4019 20.6966H33.7155C33.6849 20.6954 33.6544 20.7006 33.6259 20.7119C33.5975 20.7231 33.5716 20.7402 33.5501 20.762C33.5286 20.7837 33.5119 20.8098 33.501 20.8384C33.4901 20.867 33.4852 20.8975 33.4868 20.9281C33.4868 21.0907 33.4151 21.2836 33.5805 21.4021C33.6649 21.4474 33.7603 21.4684 33.856 21.4627C34.3217 21.4627 34.7847 21.4627 35.2476 21.4627C35.3964 21.4627 35.5425 21.4627 35.6885 21.4627C35.7189 21.4623 35.749 21.4681 35.7771 21.4799C35.8051 21.4916 35.8304 21.509 35.8513 21.531C35.8723 21.553 35.8885 21.5791 35.8989 21.6077C35.9093 21.6362 35.9137 21.6666 35.9117 21.6969C35.9117 21.8182 35.9117 21.9394 35.9117 22.0634C35.9117 22.4409 35.8787 22.474 35.4901 22.4823C34.939 22.4823 34.3686 22.4823 33.8064 22.4823C33.5309 22.4823 33.4813 22.5649 33.4702 22.846C33.4647 22.9433 33.4647 23.0408 33.4702 23.1381C33.4702 23.3751 33.5364 23.444 33.7734 23.4467C34.3245 23.4467 34.8977 23.4467 35.4571 23.4467C36.2645 23.4467 36.179 23.4082 36.1846 24.2238C36.1846 24.2734 36.1846 24.3203 36.1846 24.3699C36.1872 24.4001 36.1836 24.4305 36.1741 24.4593C36.1646 24.4881 36.1493 24.5147 36.1292 24.5374C36.1091 24.5601 36.0846 24.5784 36.0572 24.5913C36.0297 24.6042 35.9999 24.6114 35.9696 24.6124C35.8971 24.6166 35.8244 24.6166 35.7519 24.6124H32.2357C31.9602 24.6124 31.9243 24.56 31.9216 24.2486C31.9216 23.6369 31.9216 23.0251 31.9216 22.4161V22.1103H31.9106Z"
              fill="#DEE6F6"
            />
            <path
              d="M45.956 21.1292C45.8588 21.1237 45.7612 21.1237 45.664 21.1292C45.5692 21.1464 45.4714 21.1326 45.3851 21.0899C45.2988 21.0472 45.2284 20.9779 45.1845 20.8923C45.0993 20.7292 44.9562 20.604 44.7833 20.5413C44.6104 20.4785 44.4202 20.4828 44.2503 20.5533C44.1786 20.572 44.115 20.6136 44.0692 20.6718C44.0235 20.73 43.998 20.8017 43.9968 20.8757C43.9994 20.9383 44.0215 20.9986 44.0601 21.048C44.0986 21.0974 44.1516 21.1335 44.2117 21.1513C44.3688 21.2092 44.5369 21.245 44.6995 21.2918C45.099 21.4076 45.5069 21.4957 45.8899 21.6473C46.6229 21.9229 46.9398 22.3941 46.9233 23.0775C46.9171 23.41 46.8077 23.7323 46.6102 23.9999C46.4127 24.2675 46.1369 24.4671 45.821 24.571C45.0291 24.8463 44.1663 24.8386 43.3795 24.549C43.1612 24.4662 42.9647 24.3344 42.8052 24.1639C42.6456 23.9934 42.5273 23.7886 42.4591 23.5652C42.2635 23.0554 42.3103 22.9783 42.8449 22.9232C42.9662 22.9232 43.0902 22.9232 43.2087 22.8984C43.2877 22.872 43.3713 22.8622 43.4542 22.8697C43.5372 22.8772 43.6177 22.9017 43.6907 22.9419C43.7637 22.982 43.8276 23.0368 43.8784 23.1028C43.9292 23.1688 43.9657 23.2446 43.9858 23.3255C44.0388 23.4291 44.1138 23.5199 44.2055 23.5914C44.2973 23.663 44.4036 23.7137 44.5169 23.74C44.6303 23.7662 44.7481 23.7674 44.8619 23.7434C44.9758 23.7194 45.0831 23.6708 45.1762 23.6011C45.2383 23.5621 45.2894 23.5081 45.3249 23.444C45.3603 23.3799 45.379 23.3078 45.379 23.2346C45.379 23.1613 45.3603 23.0892 45.3249 23.0251C45.2894 22.961 45.2383 22.907 45.1762 22.8681C44.9655 22.7441 44.7354 22.6565 44.4956 22.609C44.22 22.5236 43.9251 22.4712 43.6523 22.372C43.4455 22.2976 43.2491 22.1966 43.0681 22.0717C42.9007 21.9578 42.7624 21.8063 42.6641 21.6292C42.5659 21.4522 42.5106 21.2546 42.5025 21.0523C42.4945 20.8499 42.534 20.6486 42.6178 20.4643C42.7017 20.28 42.8276 20.118 42.9855 19.9912C43.1144 19.8759 43.2615 19.7828 43.4209 19.7156C44.1819 19.4265 45.021 19.4177 45.788 19.6908C45.9861 19.7574 46.166 19.8693 46.3133 20.0176C46.4606 20.1659 46.5714 20.3465 46.6367 20.5451C46.7965 20.9777 46.7579 21.0548 46.3088 21.0796C46.1848 21.0796 46.0635 21.0796 45.9423 21.0796L45.956 21.1292Z"
              fill="#DEE6F6"
            />
            <path
              d="M40.8636 24.3754C40.4812 24.5957 40.0531 24.7249 39.6126 24.7529C39.2229 24.7779 38.8316 24.7492 38.4497 24.6675C38.1088 24.6247 37.7902 24.4749 37.5397 24.2397C37.2892 24.0046 37.1196 23.6961 37.0553 23.3586C37.025 23.2732 37.0168 23.1739 36.9865 23.0582C37.4136 22.8543 37.86 22.9122 38.2844 22.8929C38.334 22.8892 38.3834 22.9028 38.4241 22.9314C38.4648 22.9601 38.4943 23.002 38.5076 23.0499C38.5417 23.1651 38.5908 23.2754 38.6536 23.3779C38.7695 23.5534 38.9471 23.6791 39.1511 23.7301C39.3552 23.7811 39.571 23.7538 39.7559 23.6534C39.8339 23.6191 39.9009 23.5638 39.9495 23.4938C39.9981 23.4238 40.0265 23.3417 40.0314 23.2566C40.0389 23.1697 40.0187 23.0826 39.9736 23.0078C39.9286 22.9331 39.861 22.8745 39.7807 22.8405C39.5338 22.7425 39.2817 22.6578 39.0256 22.587C38.5951 22.5041 38.1821 22.3475 37.8049 22.124C37.5905 22.0023 37.4176 21.819 37.3086 21.598C37.1995 21.3769 37.1593 21.1282 37.1931 20.884C37.2017 20.6633 37.2704 20.4491 37.3918 20.2645C37.5132 20.08 37.6827 19.9321 37.882 19.8369C38.3089 19.6236 38.7783 19.5093 39.2554 19.5026C39.7326 19.496 40.205 19.597 40.6377 19.7983C40.8375 19.8943 41.0093 20.04 41.1366 20.2214C41.264 20.4028 41.3427 20.6139 41.3652 20.8344C41.3742 20.8939 41.3613 20.9547 41.3289 21.0054C41.2964 21.0561 41.2466 21.0933 41.1888 21.11C40.8691 21.11 40.5605 21.11 40.2491 21.11C40.1673 21.1184 40.0847 21.1019 40.0124 21.0625C39.9401 21.0232 39.8814 20.9629 39.844 20.8895C39.7608 20.7307 39.6226 20.6077 39.4553 20.5433C39.288 20.4789 39.1029 20.4776 38.9347 20.5396C38.8616 20.5512 38.7946 20.5872 38.7446 20.6417C38.6945 20.6963 38.6644 20.7661 38.6591 20.8399C38.648 20.9126 38.6645 20.9868 38.7053 21.048C38.746 21.1092 38.8082 21.1529 38.8796 21.1706C39.241 21.3054 39.6194 21.3898 40.0039 21.4214C40.2271 21.5095 40.4503 21.606 40.6735 21.6969C41.9659 22.2839 41.7454 23.794 40.8636 24.3754Z"
              fill="#DEE6F6"
            />
            <path
              d="M9.5788 24.1246C9.17097 23.0224 8.75211 21.9339 8.33876 20.8509C8.18169 20.4431 8.12383 19.9967 7.8152 19.6577C7.40737 19.6577 6.9885 19.6577 6.58342 19.6192C6.51789 19.6068 6.45056 19.6077 6.38534 19.6215C6.32012 19.6354 6.2583 19.6621 6.20346 19.7C6.14862 19.7379 6.10185 19.7864 6.06585 19.8425C6.02984 19.8986 6.00533 19.9613 5.99373 20.027C5.47015 21.4406 4.93555 22.8543 4.40372 24.2707C4.37188 24.33 4.35521 24.3963 4.35521 24.4636C4.35521 24.5309 4.37188 24.5972 4.40372 24.6565C4.64346 24.6565 4.90525 24.6565 5.16703 24.6565C5.62447 24.684 5.99371 24.6565 6.04883 24.075C6.06167 24.0017 6.10177 23.936 6.16106 23.891C6.22035 23.8461 6.29444 23.8252 6.36849 23.8325C6.66059 23.8325 6.96096 23.8325 7.2503 23.8325C7.90063 23.8325 7.90062 23.7939 8.05494 24.414C8.06711 24.486 8.10585 24.5509 8.16349 24.5958C8.22113 24.6407 8.2935 24.6623 8.36633 24.6565H9.65321C9.67939 24.5676 9.68631 24.4742 9.67348 24.3825C9.66064 24.2908 9.62836 24.2029 9.5788 24.1246ZM6.50627 22.6807C6.61067 22.1383 6.76281 21.6062 6.96094 21.0907C7.2806 21.606 7.35775 22.1185 7.51207 22.7C7.17894 22.7615 6.8368 22.755 6.50627 22.6807Z"
              fill="#DEE6F6"
            />
            <path
              d="M77.7038 22.6035C77.9959 22.6917 78.2742 22.7689 78.5498 22.857C79.0568 23.0141 79.0734 23.0472 78.8694 23.4963C78.7444 23.803 78.544 24.0731 78.2868 24.2817C78.0295 24.4903 77.7238 24.6305 77.3979 24.6895C76.7952 24.8154 76.1701 24.7812 75.5847 24.5903C75.2576 24.4821 74.9627 24.2939 74.7269 24.0426C74.491 23.7914 74.3218 23.4852 74.2345 23.1519C74.0127 22.4733 74.0127 21.7417 74.2345 21.0631C74.3273 20.7443 74.4974 20.4533 74.7295 20.2158C74.9617 19.9784 75.2488 19.8018 75.5654 19.7018C76.2404 19.4665 76.9738 19.4578 77.6542 19.677C77.9628 19.7808 78.2408 19.9595 78.4635 20.1971C78.6861 20.4346 78.8464 20.7236 78.9301 21.0383C78.5608 21.2863 78.1337 21.2588 77.7507 21.3745C77.7157 21.377 77.6805 21.3719 77.6477 21.3595C77.6149 21.3472 77.5851 21.3278 77.5605 21.3028C77.4778 21.2174 77.431 21.0934 77.3456 21.0107C77.2407 20.8993 77.11 20.8153 76.965 20.7662C76.82 20.7171 76.6652 20.7043 76.5141 20.7291C76.3631 20.7539 76.2205 20.8154 76.0987 20.9082C75.977 21.0011 75.88 21.1224 75.8162 21.2615C75.6871 21.5537 75.6219 21.8701 75.6253 22.1895C75.6286 22.5089 75.7003 22.8239 75.8355 23.1133C76.0973 23.692 77.0039 23.7361 77.3731 23.207C77.4952 23.0125 77.6056 22.811 77.7038 22.6035Z"
              fill="#DEE6F6"
            />
            <path
              d="M4.31555 20.8592C4.19154 20.1124 3.74513 19.677 2.99008 19.6495C2.08899 19.6081 1.1879 19.6302 0.286801 19.6302C0.249107 19.6233 0.210314 19.6257 0.173743 19.6371C0.137173 19.6486 0.103923 19.6687 0.0768318 19.6958C0.0497405 19.7229 0.0296232 19.7561 0.0182004 19.7927C0.00677752 19.8293 0.004382 19.8681 0.0112373 19.9057V22.1103C0.0112373 22.5457 0.0112373 22.9838 0.0112373 23.4192C0.0498163 24.9679 -0.264331 24.6289 1.35047 24.6675C1.53235 24.6675 1.60125 24.5628 1.60125 24.3919V23.5211C1.60125 22.824 1.54338 22.824 2.25985 22.824C2.47997 22.8249 2.69992 22.812 2.91844 22.7854C3.93802 22.6311 4.48915 21.8678 4.31555 20.8592ZM2.45549 21.6859C2.34203 21.7191 2.22583 21.7422 2.10828 21.7548C1.66186 21.8044 1.61227 21.7548 1.60401 21.3001V21.223C1.60401 21.1045 1.60401 20.9804 1.60401 20.8647C1.60401 20.749 1.6536 20.6608 1.76934 20.6608C1.98683 20.6544 2.20445 20.6673 2.41966 20.6994C2.52739 20.7254 2.62278 20.7879 2.68959 20.8764C2.75641 20.9648 2.79054 21.0736 2.78617 21.1844C2.79621 21.2938 2.76902 21.4034 2.709 21.4954C2.64899 21.5874 2.55966 21.6565 2.45549 21.6914V21.6859Z"
              fill="#DEE6F6"
            />
            <path
              d="M13.4836 19.6495C12.5825 19.6081 11.6814 19.6302 10.7803 19.6302C10.5957 19.6302 10.5267 19.7349 10.5267 19.9057V24.1494C10.5226 24.198 10.5226 24.2469 10.5267 24.2955C10.5267 24.6151 10.5571 24.6454 10.8464 24.6537C11.1358 24.662 11.4775 24.6537 11.7971 24.6537C12.0396 24.6537 12.1057 24.5876 12.1057 24.3534C12.1057 23.9373 12.1057 23.5267 12.1057 23.1133C12.1057 22.8708 12.1636 22.8378 12.4144 22.8047C12.8032 22.8027 13.1916 22.7769 13.5772 22.7275C13.9081 22.6876 14.2134 22.529 14.4363 22.2812C14.6592 22.0335 14.7848 21.7133 14.7897 21.38C14.7897 21.2643 14.7897 21.1375 14.7897 21.0218C14.7704 20.2089 14.2965 19.6881 13.4836 19.6495ZM12.9021 21.7107L12.7561 21.741C12.0975 21.8292 12.1057 21.7989 12.1168 21.1706V20.895C12.1168 20.749 12.1829 20.6608 12.3289 20.6608C12.4976 20.6555 12.6664 20.6657 12.8332 20.6911C12.9515 20.7114 13.0599 20.7698 13.1419 20.8573C13.224 20.9449 13.2752 21.0568 13.2879 21.1761C13.2898 21.2949 13.2533 21.4111 13.1838 21.5074C13.1142 21.6038 13.0155 21.6751 12.9021 21.7107Z"
              fill="#DEE6F6"
            />
            <path
              d="M61.9829 23.0527C62.2585 22.1626 62.4982 21.3442 62.7655 20.534C63.121 19.4538 62.8482 19.6467 63.9835 19.6274C64.1837 19.593 64.3897 19.6179 64.576 19.6991C64.5615 19.7923 64.5403 19.8844 64.5126 19.9746C63.9807 21.4158 63.4351 22.8543 62.9143 24.301C62.889 24.4194 62.8191 24.5236 62.719 24.5918C62.6189 24.6601 62.4965 24.6872 62.377 24.6675C62.0601 24.651 61.7432 24.6675 61.4235 24.6675C61.3169 24.6861 61.2071 24.6639 61.1162 24.6051C61.0252 24.5464 60.9598 24.4555 60.933 24.3506C60.3819 22.8846 59.8307 21.4269 59.2796 19.9691C59.2536 19.9165 59.242 19.858 59.2458 19.7994C59.2497 19.7409 59.269 19.6844 59.3016 19.6357H60.572C60.645 19.6322 60.7167 19.6558 60.7732 19.7022C60.8298 19.7485 60.867 19.8142 60.8779 19.8865C61.1534 20.7462 61.429 21.606 61.7046 22.4685C61.7424 22.6849 61.8387 22.8869 61.9829 23.0527Z"
              fill="#DEE6F6"
            />
            <path
              d="M28.8959 24.6592H27.2149C27.0358 24.6592 26.9394 24.5683 26.9559 24.3837C26.9559 23.8463 26.9559 23.3117 26.9559 22.7744C26.9559 22.0937 26.9559 21.4103 26.9559 20.7297C26.9559 20.3742 26.8484 20.0022 27.0441 19.6633C27.4761 19.6036 27.9137 19.5962 28.3475 19.6412C28.3967 19.644 28.4428 19.6662 28.4759 19.7028C28.5089 19.7394 28.5261 19.7876 28.5239 19.8369C28.5239 20.0325 28.5239 20.2254 28.5239 20.4211C28.5239 21.2973 28.5239 22.1764 28.5239 23.0527C28.5239 23.3834 28.5735 23.4275 28.9069 23.4302C29.4911 23.4302 30.0753 23.4302 30.6595 23.4302C30.8303 23.4302 30.935 23.4991 30.935 23.6865C30.935 24.7887 31.1004 24.6372 30.0505 24.6482C29.6619 24.6482 29.2734 24.6482 28.8821 24.6482L28.8959 24.6592Z"
              fill="#DEE6F6"
            />
            <path
              d="M50.5828 22.0717C50.5828 21.391 50.5828 20.6939 50.5828 20.027C50.5828 19.6495 50.6076 19.6219 51.0099 19.6274C52.3877 19.6495 52.1507 19.4015 52.1673 20.7572C52.181 21.7768 52.1673 22.7992 52.1673 23.8215C52.1673 23.9924 52.1673 24.1632 52.1673 24.3313C52.1673 24.6069 52.1121 24.6454 51.8118 24.6592H51.6657C50.3761 24.6317 50.6048 24.8576 50.5828 23.601C50.5745 23.094 50.58 22.5815 50.5828 22.0717Z"
              fill="#DEE6F6"
            />
            <path
              d="M81.6471 22.1626C81.6471 22.8929 81.6471 23.6231 81.6471 24.3534C81.6471 24.5903 81.5837 24.651 81.344 24.6565C81.0023 24.6565 80.6634 24.6565 80.3217 24.6565C80.1453 24.6565 80.0626 24.5628 80.0626 24.3809C80.0626 23.6259 80.0626 22.8736 80.0626 22.1185C80.0626 21.3635 80.0626 20.658 80.0626 19.9278C80.0626 19.6798 80.1177 19.6302 80.363 19.6247C80.7019 19.6247 81.0436 19.6247 81.3826 19.6247C81.4202 19.6185 81.4587 19.6213 81.495 19.633C81.5312 19.6446 81.5642 19.6648 81.5911 19.6917C81.6181 19.7186 81.6382 19.7516 81.6498 19.7879C81.6615 19.8241 81.6643 19.8626 81.6581 19.9002C81.6581 20.2667 81.6581 20.6305 81.6581 21.0025V22.1681L81.6471 22.1626Z"
              fill="#DEE6F6"
            />
            <path
              d="M71.3438 22.0689V20.2419C71.3438 19.5944 71.2969 19.6247 71.9969 19.6274H72.2146C72.9476 19.6274 72.9007 19.5696 72.9007 20.2805V23.7141C72.9007 23.9097 72.9007 24.1054 72.9007 24.301C72.9007 24.6317 72.8704 24.662 72.5094 24.6565C72.1487 24.696 71.784 24.6774 71.4292 24.6014C71.2583 24.2542 71.3658 23.8877 71.352 23.5322C71.33 23.0444 71.3438 22.5567 71.3438 22.0689Z"
              fill="#DEE6F6"
            />
          </svg>